<svg width="32" height="32" viewBox="0 0 32 32" fill="none" xmlns="http://www.w3.org/2000/svg">
  <rect width="32" height="32" rx="6" fill="#0d0d0d"/>
  <!-- Cursive T with flowing curves and bottom flourish -->
  <path d="M8 8 Q10 6 12 8 L14 8 Q16 6 18 8 L20 8 Q22 6 24 8 L24 10 Q22 12 20 10 L18 10 L18 20 Q18 22 16 22 L16 20 L16 10 L14 10 Q12 12 10 10 L8 10 Q6 12 8 10 Z M16 20 Q14 22 12 20 L10 18 Q8 16 10 14 L12 16 Q14 18 16 16 Z" 
        fill="#dc143c" 
        stroke="#000000" 
        stroke-width="0.2"/>
</svg>